<svg width="200" height="70" viewBox="0 0 200 70" fill="none" xmlns="http://www.w3.org/2000/svg">
<rect width="200" height="70" fill="white"/>
<g clip-path="url(#clip0_2431_3314)">
<path d="M97.0806 40.6851V49.9739H102.92V40.6851H97.0806Z" fill="#EB482A"/>
<path d="M100.411 20H99.4834V20.0027C94.4778 20.0597 90.4377 24.1235 90.4377 29.1313C90.4377 34.1391 94.4784 38.203 99.4834 38.26V38.2626H100.411C105.466 38.2626 109.563 34.1746 109.563 29.1313C109.563 24.0881 105.466 20 100.411 20ZM102.908 31.6229H97.0929V26.6403H102.908V31.6229Z" fill="#EB482A"/>
<path d="M144.831 20V26.5511H139.043V20H132.374V49.9747H134.891V36.1791C134.891 34.5847 136.187 33.2919 137.785 33.2919C139.383 33.2919 140.679 34.5842 140.679 36.1791V49.9747H143.196V36.1791C143.196 34.5847 144.491 33.2919 146.089 33.2919C147.687 33.2919 148.983 34.5842 148.983 36.1791V49.9747H151.5V20H144.831Z" fill="#EB482A"/>
<path d="M69.48 20V22.1335H75.3912C78.6258 22.1335 81.2479 24.7498 81.2479 27.9772C81.2479 31.2046 78.6258 33.8209 75.3912 33.8209H69.48V50.0005H71.3861V41.5648C71.3861 38.5981 73.7965 36.1926 76.7704 36.1926C79.7443 36.1926 82.1546 38.5975 82.1546 41.5648V50.0005H88.6056V20H69.48Z" fill="#EB482A"/>
<path d="M130.531 49.9742V24.5428C130.531 22.0378 128.489 20 125.979 20C123.469 20 121.426 22.0378 121.426 24.5428V45.5738H120.539V24.5428C120.539 22.0378 118.484 20 115.959 20C113.434 20 111.406 22.0378 111.406 24.5428V49.9742H115.515V24.3998H116.43V45.4308C116.43 47.9358 118.472 49.9737 120.982 49.9737C123.492 49.9737 125.535 47.9358 125.535 45.4308V24.3998H126.422V49.9737H130.531V49.9742Z" fill="#EB482A"/>
<path d="M58.0709 30.9047H53.9818L59.4313 25.4728L53.9818 20.0366V20H48.5L48.5162 49.9677H58.0709C63.348 49.9677 67.6257 45.7007 67.6257 40.4365C67.6257 35.1723 63.348 30.9052 58.0709 30.9052V30.9047ZM57.6615 45.8684L52.2163 40.4365L57.6615 35.0003L63.1109 40.4365L57.6615 45.8684Z" fill="#EB482A"/>
</g>
<defs>
<clipPath id="clip0_2431_3314">
<rect width="103" height="30" fill="white" transform="translate(48.5 20)"/>
</clipPath>
</defs>
</svg>
