<svg width="103" height="30" viewBox="0 0 103 30" fill="none" xmlns="http://www.w3.org/2000/svg">
<g clip-path="url(#clip0_2097_1559)">
<path d="M48.5806 20.6851V29.9739H54.4201V20.6851H48.5806Z" fill="#000000"/>
<path d="M51.9111 0H50.9834V0.00268774C45.9778 0.0596678 41.9377 4.12353 41.9377 9.13132C41.9377 14.1391 45.9784 18.203 50.9834 18.26V18.2626H51.9111C56.9657 18.2626 61.0629 14.1746 61.0629 9.13132C61.0629 4.08805 56.9657 0 51.9111 0ZM54.4082 11.6229H48.5929V6.64033H54.4082V11.6229Z" fill="#000000"/>
<path d="M96.3307 0V6.55109H90.5435V0H83.8743V29.9747H86.3913V16.1791C86.3913 14.5847 87.687 13.2919 89.2849 13.2919C90.8829 13.2919 92.1786 14.5842 92.1786 16.1791V29.9747H94.6956V16.1791C94.6956 14.5847 95.9913 13.2919 97.5893 13.2919C99.1872 13.2919 100.483 14.5842 100.483 16.1791V29.9747H103V0H96.3307Z" fill="#000000"/>
<path d="M20.98 0V2.13353H26.8912C30.1258 2.13353 32.7479 4.74977 32.7479 7.97721C32.7479 11.2046 30.1258 13.8209 26.8912 13.8209H20.98V30.0005H22.8861V21.5648C22.8861 18.5981 25.2965 16.1926 28.2704 16.1926C31.2443 16.1926 33.6546 18.5975 33.6546 21.5648V30.0005H40.1056V0H20.98Z" fill="#000000"/>
<path d="M82.0314 29.9742V4.54282C82.0314 2.03784 79.989 0 77.479 0C74.9689 0 72.926 2.03784 72.926 4.54282V25.5738H72.0387V4.54282C72.0387 2.03784 69.9839 0 67.4587 0C64.9336 0 62.9058 2.03784 62.9058 4.54282V29.9742H67.0148V4.39983H67.9296V25.4308C67.9296 27.9358 69.972 29.9737 72.4821 29.9737C74.9921 29.9737 77.035 27.9358 77.035 25.4308V4.39983H77.9224V29.9737H82.0314V29.9742Z" fill="#000000"/>
<path d="M9.57091 10.9047H5.48179L10.9313 5.47277L5.48179 0.0365532V0H0L0.0161625 29.9677H9.57091C14.848 29.9677 19.1257 25.7007 19.1257 20.4365C19.1257 15.1723 14.848 10.9052 9.57091 10.9052V10.9047ZM9.16146 25.8684L3.7163 20.4365L9.16146 15.0003L14.6109 20.4365L9.16146 25.8684Z" fill="#000000"/>
</g>
<defs>
<clipPath id="clip0_2097_1559">
<rect width="103" height="30" fill="white"/>
</clipPath>
</defs>
</svg>
